<?xml version="1.0" standalone="no"?>
<!DOCTYPE svg PUBLIC "-//W3C//DTD SVG 20010904//EN"
 "http://www.w3.org/TR/2001/REC-SVG-20010904/DTD/svg10.dtd">
<svg version="1.0" xmlns="http://www.w3.org/2000/svg"
 width="600.000000pt" height="600.000000pt" viewBox="0 0 600.000000 600.000000"
 preserveAspectRatio="xMidYMid meet">
<metadata>
Created by potrace 1.11, written by Peter Selinger 2001-2013
</metadata>
<g transform="translate(0.000000,600.000000) scale(0.100000,-0.100000)"
fill="#000000" stroke="none">
<path d="M2720 5980 c-30 -5 -77 -11 -105 -14 -77 -10 -202 -30 -240 -40 -5
-1 -37 -8 -70 -15 -91 -20 -325 -93 -402 -127 -17 -8 -33 -14 -36 -14 -22 0
-359 -168 -365 -182 -2 -5 -8 -8 -14 -8 -28 0 -311 -200 -438 -309 -85 -74
-262 -252 -325 -326 -27 -33 -52 -62 -55 -65 -26 -22 -240 -331 -240 -346 0
-3 -8 -18 -19 -32 -31 -45 -115 -211 -160 -317 -23 -55 -46 -109 -51 -120 -5
-11 -18 -49 -30 -85 -11 -36 -24 -72 -27 -80 -3 -8 -7 -20 -8 -25 -2 -6 -12
-43 -23 -83 -11 -39 -18 -72 -15 -72 3 0 0 -6 -6 -14 -6 -8 -11 -18 -10 -22 1
-5 0 -11 -1 -14 -2 -7 -7 -28 -14 -70 -14 -82 -17 -96 -22 -120 -4 -14 -8 -41
-10 -60 -3 -19 -7 -55 -9 -80 -22 -197 -23 -593 -1 -628 3 -6 2 -13 -4 -17 -6
-4 -7 -12 -3 -18 4 -7 8 -16 9 -22 4 -29 15 -114 19 -145 2 -19 7 -46 10 -60
7 -28 13 -58 19 -92 2 -13 12 -52 21 -88 9 -36 18 -69 19 -75 1 -5 5 -16 9
-22 5 -7 6 -13 2 -13 -3 0 -1 -9 5 -21 7 -11 13 -30 16 -42 2 -12 18 -58 34
-102 17 -44 33 -87 35 -95 10 -42 155 -343 168 -348 4 -2 7 -8 7 -13 0 -21
136 -231 234 -359 127 -167 346 -392 486 -500 25 -19 47 -37 50 -40 13 -15
184 -134 270 -188 111 -69 381 -205 450 -227 3 -1 19 -7 35 -14 51 -22 264
-91 297 -96 17 -3 35 -8 40 -11 5 -3 21 -8 36 -10 15 -3 43 -9 62 -14 19 -5
51 -12 70 -15 19 -4 71 -13 115 -20 136 -24 232 -30 465 -30 202 0 338 6 410
20 14 2 54 9 90 15 36 5 76 12 90 16 14 3 37 7 51 8 14 2 30 5 35 8 5 3 27 9
49 13 49 10 38 7 170 48 205 65 422 160 601 263 86 49 311 198 324 213 3 3 39
33 80 66 103 83 307 283 392 385 38 47 78 94 87 105 71 85 207 300 283 445
150 289 270 655 303 929 4 30 9 63 11 75 25 129 25 605 0 756 -3 14 -7 43 -10
65 -39 281 -140 604 -273 872 -165 330 -349 583 -602 827 -117 113 -117 113
-234 206 -11 8 -24 20 -31 26 -15 14 -235 164 -240 164 -3 0 -24 13 -48 29
-157 105 -529 264 -740 317 -10 2 -28 7 -40 10 -31 8 -98 23 -128 29 -14 3
-36 8 -48 11 -13 2 -43 7 -65 10 -23 3 -49 8 -57 11 -8 3 -35 7 -59 9 -24 2
-55 7 -70 10 -40 9 -549 12 -611 4z"/>
</g>
</svg>
