<?xml version="1.0" standalone="no"?>
<!DOCTYPE svg PUBLIC "-//W3C//DTD SVG 20010904//EN"
 "http://www.w3.org/TR/2001/REC-SVG-20010904/DTD/svg10.dtd">
<svg version="1.0" xmlns="http://www.w3.org/2000/svg"
 width="1220.000000pt" height="1220.000000pt" viewBox="0 0 1220.000000 1220.000000"
 preserveAspectRatio="xMidYMid meet">
<metadata>
Created by potrace 1.11, written by Peter Selinger 2001-2013
</metadata>
<g transform="translate(0.000000,1220.000000) scale(0.100000,-0.100000)"
fill="#000000" stroke="none">
<path d="M5620 11711 c-8 -5 -55 -12 -105 -15 -49 -4 -108 -9 -130 -12 -22 -3
-56 -7 -75 -9 -146 -18 -203 -26 -240 -35 -19 -5 -53 -12 -75 -15 -22 -4 -58
-11 -79 -17 -22 -5 -49 -11 -60 -13 -12 -1 -28 -5 -36 -8 -8 -3 -68 -17 -134
-32 -65 -15 -173 -45 -240 -67 -66 -21 -128 -41 -136 -43 -23 -5 -143 -45
-165 -56 -18 -8 -72 -30 -85 -34 -3 -1 -14 -5 -25 -9 -11 -4 -33 -13 -50 -19
-16 -5 -57 -22 -90 -37 -33 -15 -93 -42 -134 -60 -62 -27 -216 -104 -401 -201
-25 -13 -46 -27 -48 -31 -2 -5 -9 -8 -16 -8 -7 0 -23 -9 -36 -20 -13 -11 -27
-20 -32 -20 -23 0 -491 -321 -601 -413 -23 -19 -76 -63 -117 -97 -224 -184
-472 -430 -671 -665 -19 -22 -36 -42 -39 -45 -3 -3 -21 -25 -40 -50 -19 -25
-37 -47 -40 -50 -3 -3 -19 -23 -35 -45 -17 -22 -32 -42 -35 -45 -8 -7 -130
-178 -165 -230 -16 -25 -33 -47 -36 -50 -7 -6 -126 -197 -176 -282 -172 -292
-374 -737 -476 -1048 -68 -208 -130 -422 -143 -500 -3 -14 -9 -38 -14 -55 -5
-16 -11 -43 -14 -60 -2 -16 -5 -30 -6 -30 -2 0 -6 -21 -14 -70 -4 -22 -8 -47
-11 -55 -7 -25 -15 -72 -21 -125 -3 -27 -7 -56 -10 -64 -2 -8 -7 -37 -10 -65
-3 -28 -7 -58 -9 -66 -3 -9 -7 -47 -11 -85 -3 -39 -7 -83 -9 -100 -3 -16 -8
-57 -12 -90 -10 -82 -10 -843 0 -930 11 -91 14 -116 22 -200 4 -38 9 -73 11
-76 2 -4 6 -31 9 -61 7 -65 13 -117 19 -143 2 -11 11 -58 20 -105 17 -97 22
-119 35 -175 6 -22 15 -62 21 -90 17 -80 18 -86 41 -165 11 -41 22 -82 24 -90
2 -8 11 -37 20 -64 9 -26 18 -57 20 -67 4 -21 71 -223 84 -254 5 -11 39 -96
77 -190 100 -253 262 -579 382 -773 29 -46 52 -85 52 -88 0 -7 165 -249 172
-252 5 -2 8 -8 8 -12 0 -8 68 -104 113 -160 7 -9 25 -33 41 -55 17 -22 33 -42
36 -45 3 -3 21 -25 40 -50 19 -25 38 -47 41 -50 4 -3 21 -23 39 -45 69 -87
191 -218 337 -360 167 -163 180 -176 268 -250 33 -27 62 -53 65 -56 29 -35
334 -262 495 -369 241 -159 549 -331 756 -420 41 -18 99 -43 129 -57 30 -14
64 -29 75 -33 45 -18 90 -35 95 -35 3 -1 21 -8 40 -17 19 -8 100 -36 180 -62
80 -26 152 -50 160 -53 13 -5 31 -10 65 -17 6 -1 15 -4 20 -8 10 -6 118 -36
165 -45 40 -8 55 -11 55 -13 0 -1 15 -3 34 -6 19 -2 39 -9 46 -14 7 -5 14 -8
17 -5 2 3 20 0 39 -6 19 -5 46 -12 62 -15 15 -2 39 -6 55 -9 98 -19 204 -36
244 -40 83 -9 118 -14 126 -18 4 -3 56 -8 116 -12 61 -4 121 -11 134 -16 30
-12 778 -12 800 0 9 5 60 12 112 15 52 4 111 9 130 12 19 3 49 7 65 9 17 2 30
4 30 5 0 1 14 3 30 4 48 4 199 27 206 32 4 2 24 6 45 9 65 10 413 94 504 121
47 15 92 28 100 29 8 2 16 4 18 5 1 2 5 3 10 5 4 1 14 4 22 7 8 3 83 29 165
58 202 72 575 234 618 269 9 8 17 11 17 6 0 -4 10 -1 23 7 12 8 62 37 112 63
49 27 121 68 160 92 38 23 89 53 113 65 23 12 42 26 42 30 0 4 4 8 10 8 8 0
155 95 170 110 3 3 34 25 70 50 36 24 70 48 75 52 6 5 44 34 85 65 41 32 77
60 80 63 3 3 30 25 60 50 30 25 57 47 60 50 3 4 32 28 65 56 89 73 268 247
440 428 17 17 55 61 85 96 30 36 57 67 60 70 5 5 80 96 107 130 53 67 116 150
161 212 29 40 56 78 60 83 18 25 128 193 142 216 8 14 38 63 65 108 55 91 70
116 137 241 69 128 82 155 83 160 0 3 19 43 42 90 43 89 133 295 133 305 0 3
9 24 19 48 25 55 101 271 101 286 0 6 4 19 9 29 17 31 70 215 111 387 52 215
50 204 56 245 2 19 9 49 14 65 6 17 12 48 14 70 11 94 25 186 30 194 3 4 7 47
11 96 3 49 8 92 10 95 5 9 18 148 16 179 0 13 3 29 8 35 11 14 12 773 0 802
-4 12 -10 61 -13 109 -4 48 -8 90 -10 94 -2 3 -7 38 -10 76 -4 39 -9 82 -11
98 -3 15 -9 57 -14 95 -19 130 -31 204 -36 211 -4 8 -13 52 -20 101 -2 14 -13
63 -25 110 -12 47 -31 121 -42 165 -50 199 -173 564 -238 710 -10 22 -30 69
-45 105 -15 36 -47 106 -71 157 -24 50 -44 96 -44 101 0 6 -4 12 -9 14 -4 2
-22 32 -39 68 -83 173 -372 647 -403 658 -5 2 -9 8 -9 14 0 5 -17 32 -37 59
-44 58 -128 167 -146 189 -36 45 -102 126 -107 130 -3 3 -30 34 -60 70 -94
109 -175 193 -429 441 -20 19 -65 59 -101 88 -36 30 -67 57 -70 60 -3 3 -27
24 -55 46 -27 21 -52 42 -55 45 -3 4 -41 33 -85 66 -44 32 -86 64 -92 71 -7 6
-29 21 -50 34 -21 13 -42 29 -46 36 -4 7 -13 13 -19 13 -5 0 -27 14 -48 30
-21 17 -41 30 -45 30 -3 0 -12 6 -20 13 -13 14 -227 146 -293 182 -20 11 -39
22 -42 25 -12 12 -367 190 -445 223 -33 14 -89 39 -125 55 -36 16 -144 58
-240 92 -216 77 -203 73 -215 75 -5 2 -71 21 -145 43 -74 22 -171 48 -215 58
-44 9 -85 20 -91 25 -6 5 -13 7 -16 4 -3 -3 -32 1 -64 10 -32 8 -75 17 -94 19
-19 3 -53 10 -75 15 -43 10 -84 16 -210 32 -44 6 -91 12 -105 14 -14 2 -68 6
-120 10 -52 4 -102 11 -111 16 -21 10 -780 11 -799 0z"/>
</g>
</svg>
